# xmcd
#
# Track frame offsets: 
#        150
#        19275
#        39497
#        65782
#        87322
#        113485
#        143312
#        173072
#        197884
#        220075
#        243842
#        265515
#        292997
#
# Disc length: 4247 seconds
#
# Revision: 0
# Processed by: cddbd v1.5.2PL0 Copyright (c) Steve Scherf et al.
# Submitted via: ExactAudioCopyFreeDBPlugin 1.0
#
DISCID=ae10950d
DTITLE=Various Artist - The Italian Connection 2 
DYEAR=1995
DGENRE=Euro-House
TTITLE0=Ankawa - Walla Walla Coco (Remix) (Exp. Summer Rmx) 
TTITLE1=Nancy S. - God Only Knows (Club Verion) 
TTITLE2=Ketty DB - You Can Take Me (Euroclub) 
TTITLE3=Jessica Jay - For You (Club Mix) 
TTITLE4=Increase Joy - I Need Your Love 
TTITLE5=Ti.Pi.Cal feat. Josh - The Colour Inside (Extended Mix) 
TTITLE6=Wallallah - Runaway From You (Extended) 
TTITLE7=Garage Foundation feat. Denise - Satisfaction (Extended Club V
TTITLE7=ersion) 
TTITLE8=La Fortuna - Why Can't You See (Remix) 
TTITLE9=Blyzart - This Is The Time (DJ Gabry Ponte Mix) 
TTITLE10=J.J. Ville - Heatbeat 
TTITLE11=Once and Twice feat. Red - Catch A Falling Star (Radio Club Ext
TTITLE11=ended Mix) 
TTITLE12=Po.Lo - I Want You (I Need Your Smile Mix) 
EXTD=
EXTT0=
EXTT1=
EXTT2=
EXTT3=
EXTT4=
EXTT5=
EXTT6=
EXTT7=
EXTT8=
EXTT9=
EXTT10=
EXTT11=
EXTT12=
PLAYORDER=
